<svg xmlns="http://www.w3.org/2000/svg" xmlns:xlink="http://www.w3.org/1999/xlink" viewBox="0,0,256,256" width="144px" height="144px"><g fill="#ffffff" fill-rule="nonzero" stroke="none" stroke-width="1" stroke-linecap="butt" stroke-linejoin="miter" stroke-miterlimit="10" stroke-dasharray="" stroke-dashoffset="0" font-family="none" font-weight="none" font-size="none" text-anchor="none" style="mix-blend-mode: normal"><g transform="scale(5.33333,5.33333)"><path d="M20,23c1,0 4,-1.618 4,-5.618c0,-6.219 -5.506,-7.382 -11.708,-7.382c-1.172,0 -4.745,0.002 -7.292,0.001c-1.657,-0.001 -3,1.343 -3,3v21.999c0,1.657 1.343,3 3,3h11.8c4.419,0 8.165,-3.496 8.2,-7.915c0.047,-6.076 -5,-7.085 -5,-7.085zM8,15h7c1.657,0 3,1.343 3,3c0,1.657 -1.343,3 -3,3h-7zM15.5,33h-7.5v-7h7.5c1.933,0 3.5,1.567 3.5,3.5c0,1.933 -1.567,3.5 -3.5,3.5zM45.51,29c0.829,0 1.5,-0.671 1.501,-1.5v0c0,-5.799 -4.011,-10.5 -10,-10.5c-5.523,0 -10,4.701 -10,10.5c0,5.799 4.477,10.5 10,10.5c4.887,0 7.602,-2.286 8.928,-5.643c0.256,-0.647 -0.246,-1.348 -0.942,-1.348h-2.401c-0.365,0 -0.688,0.207 -0.877,0.52c-0.914,1.51 -2.309,2.471 -4.187,2.471c-2.812,0 -4.86,-2.135 -5.382,-5h10.722zM37.011,21c2.077,0 4.09,1.656 4.658,4h-9.273c0.753,-2.349 2.535,-4 4.615,-4zM41.5,15h-8c-0.828,0 -1.5,-0.672 -1.5,-1.5v0c0,-0.828 0.672,-1.5 1.5,-1.5h8c0.828,0 1.5,0.672 1.5,1.5v0c0,0.828 -0.672,1.5 -1.5,1.5z"></path></g></g></svg>