<?xml version="1.0" encoding="UTF-8"?>
<svg id="Layer_2" data-name="Layer 2" xmlns="http://www.w3.org/2000/svg" viewBox="0 0 317.06 56.18">
  <defs>
    <style>
      .cls-1 {
        stroke: #fff;
      }

      .cls-1, .cls-2 {
        fill: none;
        stroke-miterlimit: 10;
        stroke-width: 2.34px;
      }

      .cls-3 {
        fill: #fff;
        stroke-width: 0px;
      }

      .cls-2 {
        stroke: #3fa9f5;
      }
    </style>
  </defs>
  <g id="Layer_1-2" data-name="Layer 1">
    <g>
      <g>
        <path class="cls-3" d="M9.78,24.11h2.28l.22,1.65h.09c1.22-1.16,2.95-1.99,4.56-1.99,3.62,0,5.61,2.73,5.61,6.98,0,4.66-2.91,7.38-6.15,7.38-1.25,0-2.72-.62-3.89-1.7h-.07l.13,2.49v4.46h-2.79v-19.27ZM19.69,30.76c0-2.87-1.04-4.66-3.51-4.66-1.12,0-2.37.55-3.61,1.83v6.47c1.13,1.03,2.42,1.4,3.29,1.4,2.18,0,3.82-1.81,3.82-5.04Z"/>
        <path class="cls-3" d="M26.24,34.18c0-3.07,2.78-4.58,9.69-5.1-.1-1.69-1.01-3.05-3.44-3.05-1.65,0-3.29.76-4.62,1.54l-1.06-1.86c1.54-.95,3.81-1.94,6.19-1.94,3.77,0,5.73,2.17,5.73,5.78v8.24h-2.3l-.22-1.77h-.09c-1.46,1.14-3.37,2.11-5.24,2.11-2.62,0-4.63-1.54-4.63-3.95ZM35.93,34.08v-3.2c-5.37.39-6.97,1.47-6.97,3.1,0,1.37,1.23,1.94,2.7,1.94s2.85-.69,4.27-1.84Z"/>
        <path class="cls-3" d="M46.47,32.38v-6.04h-3.77v-2.08l3.88-.15.37-4.34h2.31v4.34h6.46v2.23h-6.46v6.05c0,2.35.83,3.49,3.31,3.49,1.2,0,2.18-.24,3.12-.58l.57,2.04c-1.23.43-2.58.8-4.33.8-4.09,0-5.45-2.31-5.45-5.75Z"/>
        <path class="cls-3" d="M61.58,24.11h2.31l.25,3.17h.07c1.41-2.23,3.52-3.51,5.96-3.51,1.06,0,1.85.16,2.68.56l-.61,2.37c-.93-.3-1.45-.44-2.5-.44-1.96,0-3.85,1-5.36,3.76v7.76h-2.79v-13.68Z"/>
        <path class="cls-3" d="M83.08,26.34h-6.12v-2.23h8.91v13.68h-2.79v-11.46ZM82.18,19.46c0-1.18.88-1.99,2.08-1.99s2.08.81,2.08,1.99-.88,1.98-2.08,1.98-2.08-.78-2.08-1.98Z"/>
        <path class="cls-3" d="M93.48,30.98c0-4.58,3.54-7.2,7.7-7.2,2.21,0,3.89.86,5.02,1.96l-1.34,1.76c-1.1-.9-2.23-1.43-3.56-1.43-2.94,0-4.97,1.96-4.97,4.91s2,4.86,4.89,4.86c1.62,0,2.97-.72,4.06-1.61l1.2,1.79c-1.55,1.36-3.5,2.11-5.48,2.11-4.29,0-7.52-2.62-7.52-7.15Z"/>
        <path class="cls-3" d="M110.86,17.94h2.79v12.91h.11l6.74-6.74h3.14l-9.99,10.04v3.64h-2.79v-19.85ZM116.23,30.81l1.65-1.78,6.4,8.77h-3.07l-4.99-6.98Z"/>
        <path class="cls-3" d="M194.86,24.26l3.91-.15h8.14v2.23h-12.05v-2.08ZM198.7,23.17c0-3.27,1.77-5.56,5.68-5.56,1.41,0,2.74.28,3.99.77l-.6,2.07c-1.06-.44-1.95-.62-3.1-.62-2.26,0-3.21,1.21-3.21,3.27v14.69h-2.77v-14.63Z"/>
        <path class="cls-3" d="M217.48,26.34h-6.12v-2.23h8.91v13.68h-2.79v-11.46ZM216.57,19.46c0-1.18.88-1.99,2.08-1.99s2.08.81,2.08,1.99-.88,1.98-2.08,1.98-2.08-.78-2.08-1.98Z"/>
        <path class="cls-3" d="M229.58,24.11h2.31l.25,3.17h.07c1.41-2.23,3.52-3.51,5.96-3.51,1.06,0,1.85.16,2.68.56l-.61,2.37c-.93-.3-1.45-.44-2.5-.44-1.96,0-3.85,1-5.36,3.76v7.76h-2.79v-13.68Z"/>
        <path class="cls-3" d="M246.38,24.11h2.31l.25,3.17h.07c1.41-2.23,3.52-3.51,5.96-3.51,1.06,0,1.85.16,2.68.56l-.61,2.37c-.93-.3-1.45-.44-2.5-.44-1.96,0-3.85,1-5.36,3.76v7.76h-2.79v-13.68Z"/>
        <path class="cls-3" d="M261.14,30.93c0-4.46,3.36-7.15,7.02-7.15,4.01,0,6.3,2.64,6.3,6.46,0,.59-.07,1.16-.13,1.52h-11.26v-2.04h9.52l-.6.68c0-2.96-1.43-4.45-3.75-4.45s-4.36,1.77-4.36,4.99,2.11,5.02,5.05,5.02c1.53,0,2.77-.46,4-1.2l.98,1.76c-1.41.93-3.23,1.62-5.33,1.62-4.15,0-7.43-2.64-7.43-7.2Z"/>
        <path class="cls-3" d="M282.72,33.01v-12.84h-4.7v-2.23h7.49v15.23c0,1.9,1.08,2.66,2.58,2.66.75,0,1.54-.18,2.45-.57l.67,2.07c-1.31.52-2.22.8-3.77.8-3.06,0-4.72-1.83-4.72-5.12Z"/>
        <path class="cls-3" d="M299.52,33.01v-12.84h-4.7v-2.23h7.49v15.23c0,1.9,1.08,2.66,2.58,2.66.75,0,1.54-.18,2.45-.57l.67,2.07c-1.31.52-2.22.8-3.77.8-3.06,0-4.72-1.83-4.72-5.12Z"/>
      </g>
      <g>
        <polyline class="cls-1" points="146.89 23.01 136.5 33.4 146.89 43.79"/>
        <circle class="cls-2" cx="154.65" cy="8.93" r="7.76"/>
        <polyline class="cls-1" points="170.17 33.17 180.56 22.78 170.17 12.4"/>
        <circle class="cls-2" cx="162.41" cy="47.25" r="7.76"/>
      </g>
    </g>
  </g>
</svg>